<svg width="15" height="14" viewBox="0 0 15 14" fill="none" xmlns="http://www.w3.org/2000/svg">
<path d="M3.5 1.31572e-07C3.00916 -0.000159079 2.52912 0.144177 2.11976 0.41501C1.7104 0.685843 1.38982 1.07119 1.198 1.523C1.49123 1.47837 1.79072 1.49952 2.07477 1.58492C2.35882 1.67033 2.62032 1.81784 2.84033 2.01677C3.06033 2.21571 3.23333 2.46109 3.3468 2.73514C3.46027 3.00919 3.51136 3.30505 3.49637 3.60128C3.48139 3.89751 3.4007 4.1867 3.26015 4.4479C3.11961 4.7091 2.92273 4.93577 2.68377 5.11149C2.44481 5.2872 2.16976 5.40757 1.87855 5.46387C1.58733 5.52017 1.28723 5.51099 1 5.437V11.5C1 12.163 1.26339 12.7989 1.73223 13.2678C2.20107 13.7366 2.83696 14 3.5 14H12.5C13.163 14 13.7989 13.7366 14.2678 13.2678C14.7366 12.7989 15 12.163 15 11.5V2.5C15 1.83696 14.7366 1.20107 14.2678 0.732233C13.7989 0.263392 13.163 1.31572e-07 12.5 1.31572e-07H3.5ZM5 5.5C5 5.36739 5.05268 5.24021 5.14645 5.14645C5.24021 5.05268 5.36739 5 5.5 5H10.5C10.6326 5 10.7598 5.05268 10.8536 5.14645C10.9473 5.24021 11 5.36739 11 5.5C11 5.63261 10.9473 5.75979 10.8536 5.85355C10.7598 5.94732 10.6326 6 10.5 6H5.5C5.36739 6 5.24021 5.94732 5.14645 5.85355C5.05268 5.75979 5 5.63261 5 5.5ZM5.5 8H8.5C8.63261 8 8.75979 8.05268 8.85355 8.14645C8.94732 8.24021 9 8.36739 9 8.5C9 8.63261 8.94732 8.75979 8.85355 8.85355C8.75979 8.94732 8.63261 9 8.5 9H5.5C5.36739 9 5.24021 8.94732 5.14645 8.85355C5.05268 8.75979 5 8.63261 5 8.5C5 8.36739 5.05268 8.24021 5.14645 8.14645C5.24021 8.05268 5.36739 8 5.5 8V8Z" fill="#BABABA"/>
<path d="M1.5 2.5C1.23478 2.5 0.98043 2.60536 0.792893 2.79289C0.605357 2.98043 0.5 3.23478 0.5 3.5C0.5 3.76522 0.605357 4.01957 0.792893 4.20711C0.98043 4.39464 1.23478 4.5 1.5 4.5C1.76522 4.5 2.01957 4.39464 2.20711 4.20711C2.39464 4.01957 2.5 3.76522 2.5 3.5C2.5 3.23478 2.39464 2.98043 2.20711 2.79289C2.01957 2.60536 1.76522 2.5 1.5 2.5Z" fill="#BABABA"/>
</svg>
